<svg xmlns="http://www.w3.org/2000/svg" width="1024" height="1024" viewBox="0 0 1024 1024">
<g>
<path d="M 0.00 0.00 L 1024.00 0.00 L 1024.00 1024.00 L 0.00 1024.00 ZM 484.00 938.42 C506.69,939.44 564.56,937.70 583.50,935.42 C588.87,934.78 589.38,934.72 604.50,932.99 C629.08,930.19 664.96,921.94 688.79,913.63 C738.06,896.44 775.37,865.53 793.96,826.50 C799.45,814.96 801.44,809.35 805.47,794.00 C810.64,774.29 811.00,766.62 811.00,676.30 L 811.00 594.21 L 808.12 587.13 C803.96,576.90 797.02,569.30 787.38,564.40 C779.80,560.56 779.50,560.49 766.10,560.00 C744.40,559.20 683.25,559.42 682.37,560.30 C681.40,561.27 681.51,582.84 682.48,583.82 C682.86,584.19 698.77,584.52 717.83,584.55 C754.54,584.61 761.61,585.26 769.95,589.33 C779.50,593.99 779.04,594.04 719.84,593.76 L 664.50 593.50 L 663.96 547.00 L 667.91 547.00 C673.58,547.00 675.82,544.18 675.05,538.00 C674.56,534.07 673.55,534.00 616.37,534.00 C585.98,534.00 560.91,533.66 560.66,533.25 C560.41,532.84 560.04,531.15 559.85,529.50 L 559.50 526.50 L 664.00 525.98 L 664.00 506.11 C664.00,483.46 664.00,483.44 655.43,470.44 C652.47,465.95 649.59,461.04 649.01,459.54 C648.44,458.03 647.68,451.44 647.33,444.90 C646.79,434.83 646.94,432.73 648.28,431.25 C652.73,426.33 651.92,420.95 646.52,419.60 C643.22,418.77 643.34,416.90 647.00,411.84 C650.37,407.18 650.87,402.59 648.51,398.01 C645.16,391.53 639.10,390.19 634.57,394.93 C630.44,399.24 630.48,405.35 634.68,411.20 C638.23,416.15 637.89,417.97 632.95,420.53 C629.34,422.39 629.23,424.58 632.50,429.41 C634.89,432.92 634.98,433.57 634.41,443.30 C633.65,456.51 631.82,463.01 626.62,471.00 C620.13,480.98 620.00,481.52 620.00,498.94 L 620.00 514.78 L 616.75 515.26 C614.96,515.53 611.92,515.62 610.00,515.45 C608.08,515.29 605.26,515.12 603.75,515.08 L 601.00 515.00 L 601.00 502.74 C601.00,491.56 601.18,490.37 603.00,489.23 C604.51,488.29 605.00,486.90 605.00,483.53 C605.00,478.33 602.24,475.00 597.93,475.00 C595.60,475.00 595.09,474.43 594.17,470.75 C592.91,465.74 587.14,459.00 584.12,459.00 L 582.00 459.00 L 582.00 421.56 C582.00,386.33 582.11,384.04 583.84,382.81 C588.64,379.40 588.95,373.32 584.48,370.40 C582.27,368.94 582.00,368.08 582.00,362.36 C582.00,356.56 582.22,355.87 584.34,355.06 C585.63,354.57 587.26,352.78 587.97,351.08 C589.62,347.09 587.83,342.25 584.37,341.38 C582.47,340.90 582.00,340.12 582.00,337.45 C582.00,335.62 581.55,333.84 581.00,333.50 C579.46,332.55 579.82,328.28 581.50,327.64 C584.06,326.66 583.36,319.95 580.17,314.95 C575.74,307.98 574.43,307.24 571.48,310.02 C568.37,312.94 565.00,319.82 565.00,323.24 C565.00,324.68 565.75,326.60 566.66,327.51 C567.98,328.84 568.13,329.91 567.41,332.83 C566.58,336.18 566.20,336.50 563.00,336.50 L 559.50 336.50 L 559.50 284.50 L 562.99 284.17 C567.13,283.78 567.96,282.72 567.98,277.86 C568.00,274.80 567.60,274.12 565.50,273.59 C564.12,273.24 563.00,272.39 563.00,271.70 C563.00,271.01 561.66,267.31 560.03,263.47 C558.39,259.64 557.04,255.13 557.03,253.45 C557.01,251.77 556.46,249.86 555.80,249.20 C554.87,248.27 554.87,247.73 555.80,246.80 C558.91,243.69 555.14,236.00 550.50,236.00 C549.32,236.00 547.28,237.13 545.98,238.52 C543.79,240.85 543.71,241.31 544.91,244.62 C545.85,247.22 545.90,248.50 545.10,249.30 C544.50,249.90 544.00,253.20 544.00,256.62 C544.00,257.44 544.02,258.18 544.04,258.86 C544.09,261.07 544.13,262.59 543.45,263.65 C541.89,266.06 536.60,266.05 519.28,266.01 C516.92,266.01 514.33,266.00 511.50,266.00 C510.03,266.00 508.62,266.00 507.28,266.00 C485.65,266.01 480.53,266.01 479.34,263.85 C478.97,263.18 478.98,262.30 478.99,261.14 C479.00,260.91 479.00,260.67 479.00,260.42 C479.00,259.09 478.61,258.00 478.14,258.00 C476.82,258.00 475.97,246.92 477.13,244.76 C478.38,242.42 476.10,238.49 472.91,237.47 C469.61,236.42 465.44,240.01 465.75,243.63 C466.50,252.53 465.40,258.45 461.15,268.22 C459.67,271.62 458.37,273.12 456.50,273.59 C454.11,274.19 453.92,274.61 454.20,278.87 L 454.50 283.50 L 460.75 283.80 L 467.00 284.10 L 467.00 335.84 L 464.02 336.50 C459.57,337.47 457.23,336.32 456.45,332.78 C455.94,330.46 456.19,329.34 457.38,328.46 C459.70,326.77 459.38,321.69 456.61,316.22 C453.76,310.60 450.64,307.54 448.57,308.33 C446.50,309.13 441.00,320.32 441.00,323.75 C441.00,325.36 441.89,327.32 443.08,328.34 C444.46,329.52 444.92,330.69 444.45,331.81 C444.05,332.74 443.17,335.03 442.49,336.91 C441.81,338.78 440.07,340.93 438.64,341.68 C434.05,344.09 433.96,351.89 438.50,354.40 C441.55,356.08 441.97,357.07 441.98,362.71 C442.00,366.98 441.55,368.33 439.52,370.22 C438.16,371.48 436.76,373.94 436.41,375.69 C435.89,378.32 436.26,379.35 438.62,381.68 L 441.47 384.50 L 441.84 421.17 L 442.22 457.84 L 438.92 459.54 C434.79,461.68 432.40,464.50 430.90,469.00 C429.36,473.63 428.18,475.00 425.71,475.00 C421.86,475.00 420.00,477.85 420.00,483.75 C420.00,488.35 420.31,489.27 422.00,489.71 C423.86,490.20 424.00,491.07 424.00,502.47 L 424.00 514.71 L 416.25 515.34 C415.45,515.41 414.71,515.47 414.02,515.54 C409.82,515.91 407.44,516.12 406.07,515.04 C404.25,513.61 404.23,509.91 404.16,501.33 C404.15,500.25 404.15,499.10 404.13,497.87 L 403.96 480.90 L 399.79 474.20 C391.14,460.29 390.73,459.08 390.21,445.53 C389.77,434.11 389.90,432.95 391.87,430.18 C393.04,428.54 394.00,426.28 394.00,425.17 C394.00,422.84 391.51,420.00 389.46,420.00 C388.70,420.00 387.58,419.08 386.98,417.96 C386.07,416.27 386.42,415.26 389.06,411.92 C391.67,408.63 392.23,407.03 392.23,402.89 C392.23,398.73 391.74,397.34 389.43,394.93 C386.12,391.47 383.25,391.23 379.61,394.09 C373.37,399.00 372.58,405.97 377.54,412.47 C380.60,416.48 380.32,418.26 376.31,420.17 C372.62,421.94 372.12,425.95 375.08,430.11 C377.16,433.03 377.25,433.91 376.65,444.45 C375.89,457.83 375.17,460.16 368.75,470.25 C360.46,483.25 360.00,485.19 360.00,507.01 L 360.00 526.00 L 407.11 526.00 C449.65,526.00 454.16,526.15 453.61,527.58 C453.27,528.45 453.00,529.54 453.00,530.01 C453.00,530.48 452.29,531.56 451.43,532.43 C450.04,533.81 444.06,534.00 400.76,534.00 C399.26,534.00 397.81,534.00 396.39,534.00 C357.46,534.00 349.82,534.00 348.34,537.01 C347.98,537.75 347.99,538.66 348.00,539.80 C348.00,539.97 348.00,540.15 348.00,540.33 C348.00,544.81 350.52,547.00 355.65,547.00 L 360.00 547.00 L 360.00 569.89 C360.00,589.85 359.80,592.86 358.42,593.39 C357.55,593.73 338.54,594.01 316.17,594.01 C272.84,594.02 268.98,594.38 261.46,599.03 C259.48,600.25 256.66,603.07 255.18,605.30 L 252.50 609.35 L 252.00 652.43 C251.36,707.55 252.18,742.21 254.45,756.00 C257.63,775.28 264.12,796.34 271.23,810.48 C276.64,821.22 289.65,839.31 297.67,847.24 C305.33,854.81 319.19,865.56 327.83,870.64 C333.59,874.02 332.50,874.70 325.85,871.86 C301.18,861.37 275.69,837.56 262.65,812.85 C248.83,786.63 242.85,762.48 241.04,725.50 C239.66,697.42 239.71,613.48 241.11,606.79 C242.72,599.11 246.52,592.64 250.83,590.23 C259.43,585.45 262.89,585.08 301.44,584.92 C321.43,584.83 338.95,584.54 340.39,584.27 L 343.00 583.77 L 343.00 559.93 L 293.75 560.21 C245.96,560.49 244.37,560.56 240.00,562.62 C228.82,567.89 220.24,576.84 215.76,587.91 L 213.50 593.50 L 213.20 674.00 C212.82,774.76 212.91,775.94 223.98,812.12 C224.43,813.56 226.41,818.16 228.39,822.34 C230.38,826.52 232.00,830.18 232.00,830.46 C232.00,831.56 244.61,850.74 248.46,855.49 C258.15,867.46 270.62,878.86 285.67,889.50 C290.13,892.66 304.85,900.96 310.43,903.47 C323.56,909.39 325.76,910.32 329.50,911.56 C331.70,912.29 338.00,914.43 343.50,916.31 C377.28,927.87 428.35,935.91 484.00,938.42 ZM 703.00 544.09 C704.38,544.46 710.45,544.63 716.50,544.47 C722.55,544.30 733.46,544.13 740.75,544.08 L 754.00 544.00 L 754.00 470.10 C754.00,390.50 753.64,383.06 748.53,358.27 C739.00,312.06 711.09,266.40 673.50,235.51 C643.41,210.79 611.52,195.19 575.50,187.57 C565.68,185.49 564.44,185.41 563.92,186.81 C563.46,188.05 563.48,209.90 563.95,236.16 C563.99,238.49 564.52,238.91 568.12,239.52 C570.39,239.90 576.57,241.79 581.87,243.70 C587.17,245.62 592.70,247.56 594.16,248.00 C596.41,248.68 607.58,254.13 617.04,259.15 C625.25,263.51 641.03,276.02 651.53,286.49 C671.04,305.97 685.18,329.02 692.64,353.50 C699.22,375.10 699.25,375.65 699.91,463.46 L 700.50 543.41 ZM 273.27 462.75 L 272.86 544.00 L 325.74 544.00 L 326.41 537.20 C326.78,533.46 327.02,498.47 326.95,459.45 C326.80,378.93 327.34,370.19 333.65,350.50 C337.51,338.43 349.51,313.36 354.22,307.50 C354.66,306.95 356.41,304.70 358.09,302.50 C364.91,293.62 367.89,290.29 376.57,281.85 C386.73,271.96 392.02,267.98 406.50,259.31 C421.29,250.46 436.93,243.60 450.50,240.03 L 456.50 238.45 L 456.77 213.04 C456.91,199.07 456.65,187.25 456.18,186.78 C454.90,185.50 433.12,190.79 422.00,195.08 C418.98,196.25 414.70,197.87 412.50,198.69 C404.15,201.77 385.09,211.81 375.00,218.45 C347.46,236.55 326.99,256.41 309.67,281.81 C306.55,286.38 304.00,290.39 304.00,290.73 C304.00,291.07 303.37,292.05 302.60,292.92 C300.37,295.42 288.00,320.71 288.00,322.75 C288.00,323.77 287.59,325.03 287.09,325.55 C286.09,326.60 281.09,343.49 278.53,354.50 C273.85,374.60 273.71,377.39 273.27,462.75 ZM 561.00 862.13 L 561.00 870.00 L 462.82 870.00 L 463.23 859.25 C463.50,852.12 465.40,838.91 468.88,820.00 C471.76,804.33 474.37,788.74 474.69,785.36 C475.26,779.34 475.20,779.16 471.72,775.78 C466.94,771.13 460.52,761.03 458.32,754.69 C457.06,751.04 456.53,746.53 456.53,739.50 C456.53,729.72 456.62,729.31 460.86,720.77 C467.50,707.39 477.36,698.99 493.11,693.31 C508.12,687.90 527.20,690.18 542.26,699.20 C556.00,707.42 565.74,722.42 566.73,736.89 C567.66,750.50 562.92,763.57 553.23,774.09 L 547.96 779.81 L 549.48 788.66 C550.32,793.52 551.43,799.75 551.95,802.50 C559.01,839.84 561.00,852.96 561.00,862.13 ZM 483.00 235.25 L 483.00 258.50 L 537.00 258.52 L 537.00 235.77 C537.00,214.10 537.10,212.96 539.00,211.77 C540.54,210.81 541.00,209.44 541.00,205.83 C541.00,202.01 540.63,201.02 539.00,200.50 C537.32,199.97 537.00,198.99 537.00,194.31 C537.00,189.23 536.68,188.45 533.25,185.01 C530.61,182.38 528.24,181.05 525.29,180.55 C522.37,180.06 520.92,179.25 520.54,177.92 C520.24,176.86 519.74,175.09 519.42,173.97 C518.97,172.37 519.50,171.72 521.95,170.87 C529.79,168.13 529.08,156.94 521.00,155.84 C518.35,155.48 518.10,154.00 519.61,147.59 C520.11,145.45 519.85,144.36 518.60,143.45 C515.80,141.40 517.44,132.65 521.21,129.48 C524.27,126.90 527.43,126.27 528.51,128.02 C529.70,129.95 536.53,132.14 543.13,132.70 C559.21,134.08 573.19,124.87 571.71,113.87 C570.82,107.25 564.35,101.07 555.58,98.47 C545.96,95.61 536.74,97.60 529.86,104.02 C527.51,106.21 525.26,108.00 524.85,108.00 C524.44,108.00 522.95,106.99 521.52,105.75 C518.94,103.51 518.94,103.49 520.61,99.29 C522.66,94.10 521.38,90.07 516.75,87.14 C508.76,82.08 497.82,90.31 500.88,99.08 C502.38,103.39 502.30,104.00 500.25,104.03 C499.29,104.04 496.29,106.11 493.60,108.61 C490.90,111.12 487.61,113.58 486.28,114.08 C482.62,115.47 475.58,115.18 472.36,113.51 C468.29,111.38 464.51,111.64 461.61,114.25 C456.18,119.14 459.11,127.00 466.37,127.00 C468.22,127.00 470.87,126.10 472.27,125.00 C474.11,123.56 476.33,123.00 480.27,123.00 C485.48,123.00 486.84,123.48 499.96,129.95 C500.76,130.34 502.02,133.04 502.76,135.95 C503.93,140.57 503.90,141.45 502.55,142.95 C500.79,144.89 500.46,149.00 502.06,149.00 C502.66,149.00 502.99,150.42 502.81,152.25 C502.55,154.95 502.04,155.55 499.77,155.81 C496.74,156.16 493.00,160.23 493.00,163.18 C493.00,166.89 495.90,171.00 498.53,171.00 C501.26,171.00 501.72,172.97 500.03,177.42 C499.29,179.37 498.12,180.12 495.04,180.61 C488.33,181.68 483.00,188.72 483.00,196.50 C483.00,198.74 482.45,200.28 481.50,200.64 C480.42,201.05 480.00,202.74 480.00,206.61 C480.00,210.73 480.35,212.00 481.50,212.00 C482.79,212.00 483.00,215.25 483.00,235.25 ZM 483.75 646.08 C483.06,646.12 479.01,646.31 474.75,646.51 L 467.00 646.86 L 466.81 627.68 C466.51,597.23 466.35,593.95 465.14,592.74 C462.31,589.91 463.92,589.00 471.75,588.98 C476.01,588.98 479.98,588.64 480.57,588.23 C483.02,586.56 482.79,584.18 479.94,581.44 C477.42,579.02 476.28,578.67 471.56,578.79 C466.59,578.92 465.90,578.67 464.03,576.04 C462.85,574.39 462.38,572.88 462.92,572.55 C464.45,571.60 465.25,563.76 464.12,560.80 C462.25,555.89 453.17,553.31 447.68,556.12 C442.43,558.80 440.45,565.51 443.16,571.45 C444.12,573.57 444.01,574.33 442.50,576.00 C440.99,577.67 439.43,578.00 433.01,578.00 C425.96,578.00 425.24,577.81 424.07,575.62 C423.12,573.85 423.07,572.73 423.90,571.19 C425.70,567.82 425.22,561.55 422.95,558.66 C420.08,555.02 414.31,553.41 409.64,554.95 C402.82,557.21 400.38,563.18 403.37,570.34 C404.58,573.25 404.54,573.85 402.96,575.80 C401.36,577.77 400.24,578.00 392.09,578.00 L 383.00 578.00 L 383.00 547.00 L 461.97 547.00 L 473.07 543.98 C486.80,540.25 487.68,539.79 497.53,531.31 C501.91,527.53 507.18,523.17 509.23,521.62 L 512.96 518.80 L 517.22 522.15 C519.56,523.99 524.58,528.34 528.38,531.80 C536.46,539.19 542.73,542.61 552.88,545.15 C559.45,546.80 564.69,547.00 601.06,547.00 L 641.88 547.00 L 642.19 557.75 C642.36,563.66 642.36,570.64 642.20,573.25 L 641.89 578.00 L 633.13 578.00 C625.63,578.00 624.06,577.70 622.13,575.91 C620.04,573.96 619.99,573.66 621.44,571.44 C623.88,567.73 623.47,560.79 620.66,558.15 C615.36,553.17 607.19,553.60 602.56,559.11 C599.82,562.36 599.33,566.11 601.06,570.65 C601.83,572.68 601.78,574.03 600.89,575.71 C599.76,577.81 598.98,578.00 591.53,578.00 C586.54,578.00 582.94,577.54 582.20,576.80 C580.74,575.34 580.62,571.35 582.00,570.50 C582.55,570.16 583.00,568.14 583.00,566.02 C583.00,555.57 568.43,550.55 561.96,558.77 C560.32,560.87 559.93,562.49 560.24,565.99 C560.46,568.47 560.97,571.21 561.36,572.07 C561.80,573.03 561.26,574.67 559.96,576.32 C558.15,578.62 557.11,579.00 552.56,579.00 C544.68,579.00 539.38,583.98 543.20,587.80 C543.93,588.53 547.49,589.00 552.32,589.00 C560.10,589.00 560.22,589.04 559.41,591.25 C558.95,592.49 558.43,605.18 558.26,619.46 C558.08,634.00 557.52,645.68 557.00,646.00 C556.10,646.56 541.02,646.37 540.47,645.79 C540.32,645.63 540.00,626.38 539.77,603.00 C539.37,562.75 539.24,560.26 537.30,556.00 C534.71,550.33 531.93,547.76 525.00,544.63 C512.58,539.02 499.92,541.23 490.17,550.72 C489.44,551.43 487.98,554.47 486.92,557.48 C485.14,562.54 485.00,566.08 485.00,604.48 C485.00,636.99 484.73,646.02 483.75,646.08 ZM 484.00 844.94 L 484.00 848.03 L 540.50 847.50 L 540.20 844.00 C540.03,842.08 536.99,826.17 533.45,808.66 C529.90,791.16 527.00,775.71 527.00,774.34 C527.00,772.65 528.52,770.47 531.79,767.50 C539.27,760.69 541.51,755.36 541.45,744.50 C541.40,734.38 540.58,732.21 534.06,724.81 C528.10,718.04 521.21,714.94 511.91,714.86 C502.89,714.79 497.10,717.02 490.44,723.16 C484.46,728.68 481.06,735.45 480.36,743.30 C479.53,752.48 482.42,759.37 490.61,767.73 C494.12,771.31 497.00,774.99 497.00,775.90 C497.00,776.81 494.08,792.02 490.50,809.70 C486.92,827.38 484.00,843.23 484.00,844.94 ZM 483.19 473.81 C482.95,474.21 466.40,473.62 465.02,473.17 C464.36,472.95 464.00,463.49 464.00,446.42 C464.00,420.25 464.02,420.00 466.10,420.00 C468.65,420.00 474.00,414.51 474.00,411.89 C474.00,410.30 473.24,410.00 469.15,410.00 L 464.31 410.00 L 463.66 398.05 C463.31,391.48 463.32,385.34 463.68,384.40 C464.29,382.81 467.54,382.74 510.89,383.40 C536.50,383.80 557.52,384.20 557.61,384.31 C558.17,384.99 558.79,404.81 558.32,407.13 C557.79,409.82 557.44,410.00 552.88,410.00 C547.61,410.00 546.88,411.04 549.16,415.32 C550.75,418.30 553.06,419.93 555.75,419.97 L 558.00 420.00 L 558.00 474.07 L 547.75 473.78 L 537.50 473.50 L 537.36 438.80 C537.23,405.08 537.16,404.00 535.06,400.59 C529.79,392.07 520.87,388.38 507.71,389.28 C497.87,389.96 491.74,392.87 487.51,398.89 L 484.50 403.17 L 483.94 438.33 C483.64,457.68 483.30,473.64 483.19,473.81 ZM 657.80 666.25 L 658.10 672.00 L 367.00 672.00 L 367.00 659.99 L 657.50 660.50 ZM 546.00 509.17 L 545.50 515.50 L 541.00 515.75 C536.91,515.98 536.05,515.59 531.50,511.47 C523.30,504.03 513.34,496.00 512.32,496.00 C511.79,496.00 506.30,500.27 500.10,505.50 C489.59,514.37 488.55,515.00 484.42,515.00 L 480.00 515.00 L 480.00 509.06 C480.00,504.05 479.65,502.87 477.78,501.56 C474.90,499.54 468.71,499.57 464.40,501.61 C461.10,503.18 461.00,503.40 461.00,509.11 L 461.00 515.00 L 442.18 515.00 L 441.81 504.25 C441.61,498.34 441.62,492.71 441.84,491.74 C442.21,490.09 446.19,490.00 512.87,490.24 L 583.50 490.50 L 583.78 502.75 L 584.06 515.00 L 566.00 515.00 L 566.00 509.69 C566.00,502.14 564.61,500.69 556.87,500.23 C548.15,499.70 546.66,500.93 546.00,509.17 ZM 302.47 523.22 L 301.81 528.00 L 293.00 528.00 L 293.01 466.25 C293.02,405.25 293.59,390.09 296.56,372.50 C302.13,339.45 314.62,310.70 335.02,284.00 C340.85,276.38 349.04,267.71 349.75,268.42 C349.97,268.64 348.45,271.22 346.37,274.16 C327.20,301.33 317.68,321.70 310.56,350.83 C303.53,379.60 302.64,392.41 302.91,461.47 C303.03,492.81 302.83,520.59 302.47,523.22 ZM 385.43 803.46 C385.15,810.04 384.81,815.53 384.68,815.66 C384.20,816.13 378.07,710.22 378.02,700.79 L 378.00 696.07 L 368.25 695.79 L 358.50 695.50 L 358.20 689.88 C357.93,684.68 358.08,684.22 360.20,683.87 C361.47,683.66 379.71,683.64 400.75,683.83 C430.35,684.10 439.00,684.46 439.00,685.42 C439.00,686.11 437.24,688.08 435.09,689.81 C430.84,693.22 431.17,693.17 401.61,694.46 C395.63,694.73 390.51,695.16 390.24,695.43 C389.97,695.70 389.59,700.32 389.40,705.71 C388.82,721.58 386.45,780.10 385.43,803.46 ZM 643.96 776.50 C642.03,813.53 641.38,822.30 641.11,815.50 C641.05,813.85 640.34,798.78 639.55,782.00 C638.76,765.22 637.86,743.62 637.54,734.00 C636.93,715.58 635.97,695.63 635.68,695.36 C635.58,695.27 628.30,694.76 619.50,694.23 C607.10,693.49 602.15,692.76 597.50,691.03 C594.20,689.79 589.17,688.34 586.32,687.81 C583.48,687.27 580.90,686.19 580.61,685.41 C580.14,684.21 586.41,684.00 622.97,684.00 C651.76,684.00 666.09,684.34 666.53,685.05 C666.88,685.62 666.87,688.32 666.49,691.05 L 665.81 696.00 L 648.00 696.00 L 648.00 699.50 C648.00,701.43 647.55,710.77 647.00,720.25 C646.45,729.74 645.09,755.05 643.96,776.50 ZM 565.80 362.25 L 566.10 368.00 L 458.20 368.00 L 457.85 363.67 C457.79,362.93 457.70,362.27 457.61,361.67 C457.42,360.37 457.28,359.37 457.63,358.59 C458.85,355.93 465.99,355.97 497.65,356.16 C501.91,356.19 506.62,356.22 511.82,356.24 L 565.50 356.50 ZM 492.42 335.35 C491.79,337.00 486.06,337.73 484.67,336.33 C484.30,335.97 484.00,324.78 484.00,311.47 C484.00,288.50 484.11,287.14 486.07,284.63 L 488.15 282.00 L 505.45 282.00 C519.96,282.00 522.97,282.25 524.06,283.57 C525.65,285.49 526.48,330.62 524.99,334.53 C524.23,336.51 523.35,337.00 520.52,337.00 L 517.00 337.00 L 517.00 315.13 C517.00,294.74 516.86,293.10 514.99,290.71 C513.88,289.30 511.59,287.85 509.90,287.48 C505.29,286.47 498.30,287.84 495.41,290.32 L 492.86 292.52 L 492.96 313.11 C493.01,324.43 492.77,334.44 492.42,335.35 ZM 640.75 646.24 C638.92,646.89 627.71,647.00 626.25,646.37 C625.30,645.96 625.00,639.61 625.00,619.48 C625.00,602.98 624.63,592.89 624.00,592.50 C623.45,592.16 623.00,591.23 623.00,590.44 C623.00,589.29 624.90,589.00 632.50,589.00 L 642.00 589.00 L 642.00 617.39 C642.00,639.20 641.71,645.89 640.75,646.24 ZM 400.00 620.12 L 400.00 647.00 L 384.00 647.00 L 383.82 620.50 C383.72,605.92 383.61,592.99 383.57,591.75 C383.50,589.58 383.87,589.49 393.25,589.21 C402.83,588.93 404.51,589.50 401.50,592.00 C400.23,593.05 400.00,597.45 400.00,620.12 ZM 597.97 645.36 C597.11,646.23 587.24,646.77 586.03,646.02 C585.26,645.54 584.92,637.53 584.93,619.91 C584.94,599.32 584.67,594.14 583.50,592.60 C582.71,591.56 582.30,590.32 582.59,589.85 C582.88,589.38 587.14,589.00 592.06,589.00 C601.08,589.00 602.79,589.81 599.87,592.73 C599.10,593.50 598.70,601.88 598.62,619.35 C598.55,633.36 598.26,645.07 597.97,645.36 ZM 439.69 645.61 C439.19,646.05 429.25,646.58 428.20,646.23 C427.31,645.94 427.00,639.17 427.00,620.04 C427.00,598.33 426.76,594.05 425.50,593.00 C424.67,592.32 424.00,591.14 424.00,590.38 C424.00,589.31 426.00,589.00 432.83,589.00 C437.69,589.00 441.94,589.28 442.28,589.61 C442.62,589.95 442.29,591.19 441.54,592.36 C440.51,594.00 440.15,600.49 440.04,619.97 C439.95,633.98 439.80,645.52 439.69,645.61 ZM 389.58 512.55 C389.00,514.86 388.56,515.00 381.98,515.00 L 375.00 515.00 L 375.00 501.17 C375.00,488.02 375.11,487.24 377.31,485.17 C380.17,482.49 384.02,482.39 387.13,484.90 C389.31,486.67 389.51,487.65 389.84,498.45 C390.03,504.85 389.92,511.20 389.58,512.55 ZM 648.01 503.65 L 648.00 514.80 L 643.75 515.15 C641.41,515.34 638.26,515.36 636.75,515.18 L 634.00 514.87 L 634.00 501.01 C634.00,487.22 634.01,487.13 636.63,485.07 C640.16,482.30 643.55,482.46 646.65,485.56 C648.45,487.35 649.03,488.76 648.62,490.31 C648.29,491.51 648.02,497.52 648.01,503.65 ZM 503.79 234.65 L 503.50 255.50 L 496.24 256.11 L 495.59 248.80 C494.66,238.39 495.12,213.73 496.27,212.25 C497.58,210.57 501.48,210.66 502.92,212.40 C503.75,213.40 504.00,219.87 503.79,234.65 ZM 524.00 234.62 L 524.00 256.00 L 515.96 256.00 L 516.23 233.75 L 516.50 211.50 L 518.81 211.17 C523.75,210.47 524.00,211.62 524.00,234.62 ZM 544.00 288.00 L 544.00 337.00 L 541.00 337.00 C539.32,337.00 537.96,336.45 537.90,335.75 C537.84,335.06 537.84,328.65 537.89,321.50 C537.94,314.35 537.99,303.89 537.99,298.25 L 538.00 288.00 ZM 517.70 472.40 C517.50,473.01 514.56,473.63 511.16,473.80 C506.18,474.04 504.85,473.78 504.35,472.46 C503.38,469.93 507.29,466.68 511.17,466.79 C514.56,466.88 518.43,470.21 517.70,472.40 Z" fill="rgb(251,138,20)"/>
<path d="M 484.00 938.42 C428.35,935.91 377.28,927.87 343.50,916.31 C338.00,914.43 331.70,912.29 329.50,911.56 C325.76,910.32 323.56,909.39 310.43,903.47 C304.85,900.96 290.13,892.66 285.67,889.50 C270.62,878.86 258.15,867.46 248.46,855.49 C244.61,850.74 232.00,831.56 232.00,830.46 C232.00,830.18 230.38,826.52 228.39,822.34 C226.41,818.16 224.43,813.56 223.98,812.12 C212.91,775.94 212.82,774.76 213.20,674.00 L 213.50 593.50 L 215.76 587.91 C220.24,576.84 228.82,567.89 240.00,562.62 C244.37,560.56 245.96,560.49 293.75,560.21 L 343.00 559.93 L 343.00 571.85 L 343.00 583.77 L 340.39 584.27 C338.95,584.54 321.43,584.83 301.44,584.92 C262.89,585.08 259.43,585.45 250.83,590.23 C246.52,592.64 242.72,599.11 241.11,606.79 C239.71,613.48 239.66,697.42 241.04,725.50 C242.85,762.48 248.83,786.63 262.65,812.85 C275.69,837.56 301.18,861.37 325.85,871.86 C332.50,874.70 333.59,874.02 327.83,870.64 C319.19,865.56 305.33,854.81 297.67,847.24 C289.65,839.31 276.64,821.22 271.23,810.48 C264.12,796.34 257.63,775.28 254.45,756.00 C252.18,742.21 251.36,707.55 252.00,652.43 L 252.50 609.35 L 255.18 605.30 C256.66,603.07 259.48,600.25 261.46,599.03 C268.98,594.38 272.84,594.02 316.17,594.01 C338.54,594.01 357.55,593.73 358.42,593.39 C359.80,592.86 360.00,589.85 360.00,569.89 L 360.00 547.00 L 355.65 547.00 C350.52,547.00 348.00,544.81 348.00,540.33 C348.00,533.82 346.46,534.00 400.76,534.00 C444.06,534.00 450.04,533.81 451.43,532.43 C452.29,531.56 453.00,530.48 453.00,530.01 C453.00,529.54 453.27,528.45 453.61,527.58 C454.16,526.15 449.65,526.00 407.11,526.00 L 360.00 526.00 L 360.00 507.01 C360.00,485.19 360.46,483.25 368.75,470.25 C375.17,460.16 375.89,457.83 376.65,444.45 C377.25,433.91 377.16,433.03 375.08,430.11 C372.12,425.95 372.62,421.94 376.31,420.17 C380.32,418.26 380.60,416.48 377.54,412.47 C372.58,405.97 373.37,399.00 379.61,394.09 C383.25,391.23 386.12,391.47 389.43,394.93 C391.74,397.34 392.23,398.73 392.23,402.89 C392.23,407.03 391.67,408.63 389.06,411.92 C386.42,415.26 386.07,416.27 386.98,417.96 C387.58,419.08 388.70,420.00 389.46,420.00 C391.51,420.00 394.00,422.84 394.00,425.17 C394.00,426.28 393.04,428.54 391.87,430.18 C389.90,432.95 389.77,434.11 390.21,445.53 C390.73,459.08 391.14,460.29 399.79,474.20 L 403.96 480.90 L 404.13 497.87 C404.33,517.62 403.48,516.38 416.25,515.34 L 424.00 514.71 L 424.00 502.47 C424.00,491.07 423.86,490.20 422.00,489.71 C420.31,489.27 420.00,488.35 420.00,483.75 C420.00,477.85 421.86,475.00 425.71,475.00 C428.18,475.00 429.36,473.63 430.90,469.00 C432.40,464.50 434.79,461.68 438.92,459.54 L 442.22 457.84 L 441.84 421.17 L 441.47 384.50 L 438.62 381.68 C436.26,379.35 435.89,378.32 436.41,375.69 C436.76,373.94 438.16,371.48 439.52,370.22 C441.55,368.33 442.00,366.98 441.98,362.71 C441.97,357.07 441.55,356.08 438.50,354.40 C433.96,351.89 434.05,344.09 438.64,341.68 C440.07,340.93 441.81,338.78 442.49,336.91 C443.17,335.03 444.05,332.74 444.45,331.81 C444.92,330.69 444.46,329.52 443.08,328.34 C441.89,327.32 441.00,325.36 441.00,323.75 C441.00,320.32 446.50,309.13 448.57,308.33 C450.64,307.54 453.76,310.60 456.61,316.22 C459.38,321.69 459.70,326.77 457.38,328.46 C456.19,329.34 455.94,330.46 456.45,332.78 C457.23,336.32 459.57,337.47 464.02,336.50 L 467.00 335.84 L 467.00 309.97 L 467.00 284.10 L 460.75 283.80 L 454.50 283.50 L 454.20 278.87 C453.92,274.61 454.11,274.19 456.50,273.59 C458.37,273.12 459.67,271.62 461.15,268.22 C465.40,258.45 466.50,252.53 465.75,243.63 C465.44,240.01 469.61,236.42 472.91,237.47 C476.10,238.49 478.38,242.42 477.13,244.76 C475.97,246.92 476.82,258.00 478.14,258.00 C478.61,258.00 479.00,259.09 479.00,260.42 C479.00,266.26 477.46,266.00 511.50,266.00 C547.05,266.00 544.00,266.88 544.00,256.62 C544.00,253.20 544.50,249.90 545.10,249.30 C545.90,248.50 545.85,247.22 544.91,244.62 C543.71,241.31 543.79,240.85 545.98,238.52 C547.28,237.13 549.32,236.00 550.50,236.00 C555.14,236.00 558.91,243.69 555.80,246.80 C554.87,247.73 554.87,248.27 555.80,249.20 C556.46,249.86 557.01,251.77 557.03,253.45 C557.04,255.13 558.39,259.64 560.03,263.47 C561.66,267.31 563.00,271.01 563.00,271.70 C563.00,272.39 564.12,273.24 565.50,273.59 C567.60,274.12 568.00,274.80 567.98,277.86 C567.96,282.72 567.13,283.78 562.99,284.17 L 559.50 284.50 L 559.50 310.50 L 559.50 336.50 L 563.00 336.50 C566.20,336.50 566.58,336.18 567.41,332.83 C568.13,329.91 567.98,328.84 566.66,327.51 C565.75,326.60 565.00,324.68 565.00,323.24 C565.00,319.82 568.37,312.94 571.48,310.02 C574.43,307.24 575.74,307.98 580.17,314.95 C583.36,319.95 584.06,326.66 581.50,327.64 C579.82,328.28 579.46,332.55 581.00,333.50 C581.55,333.84 582.00,335.62 582.00,337.45 C582.00,340.12 582.47,340.90 584.37,341.38 C587.83,342.25 589.62,347.09 587.97,351.08 C587.26,352.78 585.63,354.57 584.34,355.06 C582.22,355.87 582.00,356.56 582.00,362.36 C582.00,368.08 582.27,368.94 584.48,370.40 C588.95,373.32 588.64,379.40 583.84,382.81 C582.11,384.04 582.00,386.33 582.00,421.56 L 582.00 459.00 L 584.12 459.00 C587.14,459.00 592.91,465.74 594.17,470.75 C595.09,474.43 595.60,475.00 597.93,475.00 C602.24,475.00 605.00,478.33 605.00,483.53 C605.00,486.90 604.51,488.29 603.00,489.23 C601.18,490.37 601.00,491.56 601.00,502.74 L 601.00 515.00 L 603.75 515.08 C605.26,515.12 608.08,515.29 610.00,515.45 C611.92,515.62 614.96,515.53 616.75,515.26 L 620.00 514.78 L 620.00 498.94 C620.00,481.52 620.13,480.98 626.62,471.00 C631.82,463.01 633.65,456.51 634.41,443.30 C634.98,433.57 634.89,432.92 632.50,429.41 C629.23,424.58 629.34,422.39 632.95,420.53 C637.89,417.97 638.23,416.15 634.68,411.20 C630.48,405.35 630.44,399.24 634.57,394.93 C639.10,390.19 645.16,391.53 648.51,398.01 C650.87,402.59 650.37,407.18 647.00,411.84 C643.34,416.90 643.22,418.77 646.52,419.60 C651.92,420.95 652.73,426.33 648.28,431.25 C646.94,432.73 646.79,434.83 647.33,444.90 C647.68,451.44 648.44,458.03 649.01,459.54 C649.59,461.04 652.47,465.95 655.43,470.44 C664.00,483.44 664.00,483.46 664.00,506.11 L 664.00 525.98 L 611.75 526.24 L 559.50 526.50 L 559.85 529.50 C560.04,531.15 560.41,532.84 560.66,533.25 C560.91,533.66 585.98,534.00 616.37,534.00 C673.55,534.00 674.56,534.07 675.05,538.00 C675.82,544.18 673.58,547.00 667.91,547.00 L 663.96 547.00 L 664.23 570.25 L 664.50 593.50 L 719.84 593.76 C779.04,594.04 779.50,593.99 769.95,589.33 C761.61,585.26 754.54,584.61 717.83,584.55 C698.77,584.52 682.86,584.19 682.48,583.82 C681.51,582.84 681.40,561.27 682.37,560.30 C683.25,559.42 744.40,559.20 766.10,560.00 C779.50,560.49 779.80,560.56 787.38,564.40 C797.02,569.30 803.96,576.90 808.12,587.13 L 811.00 594.21 L 811.00 676.30 C811.00,766.62 810.64,774.29 805.47,794.00 C801.44,809.35 799.45,814.96 793.96,826.50 C775.37,865.53 738.06,896.44 688.79,913.63 C664.96,921.94 629.08,930.19 604.50,932.99 C589.38,934.72 588.87,934.78 583.50,935.42 C564.56,937.70 506.69,939.44 484.00,938.42 ZM 561.00 862.13 C561.00,852.96 559.01,839.84 551.95,802.50 C551.43,799.75 550.32,793.52 549.48,788.66 L 547.96 779.81 L 553.23 774.09 C562.92,763.57 567.66,750.50 566.73,736.89 C565.74,722.42 556.00,707.42 542.26,699.20 C527.20,690.18 508.12,687.90 493.11,693.31 C477.36,698.99 467.50,707.39 460.86,720.77 C456.62,729.31 456.53,729.72 456.53,739.50 C456.53,746.53 457.06,751.04 458.32,754.69 C460.52,761.03 466.94,771.13 471.72,775.78 C475.20,779.16 475.26,779.34 474.69,785.36 C474.37,788.74 471.76,804.33 468.88,820.00 C465.40,838.91 463.50,852.12 463.23,859.25 L 462.82 870.00 L 511.91 870.00 L 561.00 870.00 L 561.00 862.13 ZM 643.96 776.50 C645.09,755.05 646.45,729.74 647.00,720.25 C647.55,710.77 648.00,701.43 648.00,699.50 L 648.00 696.00 L 656.91 696.00 L 665.81 696.00 L 666.49 691.05 C666.87,688.32 666.88,685.62 666.53,685.05 C666.09,684.34 651.76,684.00 622.97,684.00 C586.41,684.00 580.14,684.21 580.61,685.41 C580.90,686.19 583.48,687.27 586.32,687.81 C589.17,688.34 594.20,689.79 597.50,691.03 C602.15,692.76 607.10,693.49 619.50,694.23 C628.30,694.76 635.58,695.27 635.68,695.36 C635.97,695.63 636.93,715.58 637.54,734.00 C637.86,743.62 638.76,765.22 639.55,782.00 C640.34,798.78 641.05,813.85 641.11,815.50 C641.38,822.30 642.03,813.53 643.96,776.50 ZM 385.43 803.46 C386.45,780.10 388.82,721.58 389.40,705.71 C389.59,700.32 389.97,695.70 390.24,695.43 C390.51,695.16 395.63,694.73 401.61,694.46 C431.17,693.17 430.84,693.22 435.09,689.81 C437.24,688.08 439.00,686.11 439.00,685.42 C439.00,684.46 430.35,684.10 400.75,683.83 C379.71,683.64 361.47,683.66 360.20,683.87 C358.08,684.22 357.93,684.68 358.20,689.88 L 358.50 695.50 L 368.25 695.79 L 378.00 696.07 L 378.02 700.79 C378.07,710.22 384.20,816.13 384.68,815.66 C384.81,815.53 385.15,810.04 385.43,803.46 ZM 657.80 666.25 L 657.50 660.50 L 512.25 660.25 L 367.00 659.99 L 367.00 666.00 L 367.00 672.00 L 512.55 672.00 L 658.10 672.00 L 657.80 666.25 ZM 400.00 620.12 C400.00,597.45 400.23,593.05 401.50,592.00 C404.51,589.50 402.83,588.93 393.25,589.21 C383.87,589.49 383.50,589.58 383.57,591.75 C383.61,592.99 383.72,605.92 383.82,620.50 L 384.00 647.00 L 392.00 647.00 L 400.00 647.00 L 400.00 620.12 ZM 439.69 645.61 C439.80,645.52 439.95,633.98 440.04,619.97 C440.15,600.49 440.51,594.00 441.54,592.36 C442.29,591.19 442.62,589.95 442.28,589.61 C441.94,589.28 437.69,589.00 432.83,589.00 C426.00,589.00 424.00,589.31 424.00,590.38 C424.00,591.14 424.67,592.32 425.50,593.00 C426.76,594.05 427.00,598.33 427.00,620.04 C427.00,639.17 427.31,645.94 428.20,646.23 C429.25,646.58 439.19,646.05 439.69,645.61 ZM 483.75 646.08 C484.73,646.02 485.00,636.99 485.00,604.48 C485.00,566.08 485.14,562.54 486.92,557.48 C487.98,554.47 489.44,551.43 490.17,550.72 C499.92,541.23 512.58,539.02 525.00,544.63 C531.93,547.76 534.71,550.33 537.30,556.00 C539.24,560.26 539.37,562.75 539.77,603.00 C540.00,626.38 540.32,645.63 540.47,645.79 C541.02,646.37 556.10,646.56 557.00,646.00 C557.52,645.68 558.08,634.00 558.26,619.46 C558.43,605.18 558.95,592.49 559.41,591.25 C560.22,589.04 560.10,589.00 552.32,589.00 C547.49,589.00 543.93,588.53 543.20,587.80 C539.38,583.98 544.68,579.00 552.56,579.00 C557.11,579.00 558.15,578.62 559.96,576.32 C561.26,574.67 561.80,573.03 561.36,572.07 C560.97,571.21 560.46,568.47 560.24,565.99 C559.93,562.49 560.32,560.87 561.96,558.77 C568.43,550.55 583.00,555.57 583.00,566.02 C583.00,568.14 582.55,570.16 582.00,570.50 C580.62,571.35 580.74,575.34 582.20,576.80 C582.94,577.54 586.54,578.00 591.53,578.00 C598.98,578.00 599.76,577.81 600.89,575.71 C601.78,574.03 601.83,572.68 601.06,570.65 C599.33,566.11 599.82,562.36 602.56,559.11 C607.19,553.60 615.36,553.17 620.66,558.15 C623.47,560.79 623.88,567.73 621.44,571.44 C619.99,573.66 620.04,573.96 622.13,575.91 C624.06,577.70 625.63,578.00 633.13,578.00 L 641.89 578.00 L 642.20 573.25 C642.36,570.64 642.36,563.66 642.19,557.75 L 641.88 547.00 L 601.06 547.00 C564.69,547.00 559.45,546.80 552.88,545.15 C542.73,542.61 536.46,539.19 528.38,531.80 C524.58,528.34 519.56,523.99 517.22,522.15 L 512.96 518.80 L 509.23 521.62 C507.18,523.17 501.91,527.53 497.53,531.31 C487.68,539.79 486.80,540.25 473.07,543.98 L 461.97 547.00 L 422.48 547.00 L 383.00 547.00 L 383.00 562.50 L 383.00 578.00 L 392.09 578.00 C400.24,578.00 401.36,577.77 402.96,575.80 C404.54,573.85 404.58,573.25 403.37,570.34 C400.38,563.18 402.82,557.21 409.64,554.95 C414.31,553.41 420.08,555.02 422.95,558.66 C425.22,561.55 425.70,567.82 423.90,571.19 C423.07,572.73 423.12,573.85 424.07,575.62 C425.24,577.81 425.96,578.00 433.01,578.00 C439.43,578.00 440.99,577.67 442.50,576.00 C444.01,574.33 444.12,573.57 443.16,571.45 C440.45,565.51 442.43,558.80 447.68,556.12 C453.17,553.31 462.25,555.89 464.12,560.80 C465.25,563.76 464.45,571.60 462.92,572.55 C462.38,572.88 462.85,574.39 464.03,576.04 C465.90,578.67 466.59,578.92 471.56,578.79 C476.28,578.67 477.42,579.02 479.94,581.44 C482.79,584.18 483.02,586.56 480.57,588.23 C479.98,588.64 476.01,588.98 471.75,588.98 C463.92,589.00 462.31,589.91 465.14,592.74 C466.35,593.95 466.51,597.23 466.81,627.68 L 467.00 646.86 L 474.75 646.51 C479.01,646.31 483.06,646.12 483.75,646.08 ZM 597.97 645.36 C598.26,645.07 598.55,633.36 598.62,619.35 C598.70,601.88 599.10,593.50 599.87,592.73 C602.79,589.81 601.08,589.00 592.06,589.00 C587.14,589.00 582.88,589.38 582.59,589.85 C582.30,590.32 582.71,591.56 583.50,592.60 C584.67,594.14 584.94,599.32 584.93,619.91 C584.92,637.53 585.26,645.54 586.03,646.02 C587.24,646.77 597.11,646.23 597.97,645.36 ZM 640.75 646.24 C641.71,645.89 642.00,639.20 642.00,617.39 L 642.00 589.00 L 632.50 589.00 C624.90,589.00 623.00,589.29 623.00,590.44 C623.00,591.23 623.45,592.16 624.00,592.50 C624.63,592.89 625.00,602.98 625.00,619.48 C625.00,639.61 625.30,645.96 626.25,646.37 C627.71,647.00 638.92,646.89 640.75,646.24 ZM 546.00 509.17 C546.66,500.93 548.15,499.70 556.87,500.23 C564.61,500.69 566.00,502.14 566.00,509.69 L 566.00 515.00 L 575.03 515.00 L 584.06 515.00 L 583.78 502.75 L 583.50 490.50 L 512.87 490.24 C446.19,490.00 442.21,490.09 441.84,491.74 C441.62,492.71 441.61,498.34 441.81,504.25 L 442.18 515.00 L 451.59 515.00 L 461.00 515.00 L 461.00 509.11 C461.00,503.40 461.10,503.18 464.40,501.61 C468.71,499.57 474.90,499.54 477.78,501.56 C479.65,502.87 480.00,504.05 480.00,509.06 L 480.00 515.00 L 484.42 515.00 C488.55,515.00 489.59,514.37 500.10,505.50 C506.30,500.27 511.79,496.00 512.32,496.00 C513.34,496.00 523.30,504.03 531.50,511.47 C536.05,515.59 536.91,515.98 541.00,515.75 L 545.50 515.50 L 546.00 509.17 ZM 648.01 503.65 C648.02,497.52 648.29,491.51 648.62,490.31 C649.03,488.76 648.45,487.35 646.65,485.56 C643.55,482.46 640.16,482.30 636.63,485.07 C634.01,487.13 634.00,487.22 634.00,501.01 L 634.00 514.87 L 636.75 515.18 C638.26,515.36 641.41,515.34 643.75,515.15 L 648.00 514.80 L 648.01 503.65 ZM 389.58 512.55 C389.92,511.20 390.03,504.85 389.84,498.45 C389.51,487.65 389.31,486.67 387.13,484.90 C384.02,482.39 380.17,482.49 377.31,485.17 C375.11,487.24 375.00,488.02 375.00,501.17 L 375.00 515.00 L 381.98 515.00 C388.56,515.00 389.00,514.86 389.58,512.55 ZM 483.19 473.81 C483.30,473.64 483.64,457.68 483.94,438.33 L 484.50 403.17 L 487.51 398.89 C491.74,392.87 497.87,389.96 507.71,389.28 C520.87,388.38 529.79,392.07 535.06,400.59 C537.16,404.00 537.23,405.08 537.36,438.80 L 537.50 473.50 L 547.75 473.78 L 558.00 474.07 L 558.00 447.03 L 558.00 420.00 L 555.75 419.97 C553.06,419.93 550.75,418.30 549.16,415.32 C546.88,411.04 547.61,410.00 552.88,410.00 C557.44,410.00 557.79,409.82 558.32,407.13 C558.79,404.81 558.17,384.99 557.61,384.31 C557.52,384.20 536.50,383.80 510.89,383.40 C467.54,382.74 464.29,382.81 463.68,384.40 C463.32,385.34 463.31,391.48 463.66,398.05 L 464.31 410.00 L 469.15 410.00 C473.24,410.00 474.00,410.30 474.00,411.89 C474.00,414.51 468.65,420.00 466.10,420.00 C464.02,420.00 464.00,420.25 464.00,446.42 C464.00,463.49 464.36,472.95 465.02,473.17 C466.40,473.62 482.95,474.21 483.19,473.81 ZM 517.70 472.40 C518.43,470.21 514.56,466.88 511.17,466.79 C507.29,466.68 503.38,469.93 504.35,472.46 C504.85,473.78 506.18,474.04 511.16,473.80 C514.56,473.63 517.50,473.01 517.70,472.40 ZM 565.80 362.25 L 565.50 356.50 L 511.82 356.24 C451.59,355.95 457.16,355.18 457.85,363.67 L 458.20 368.00 L 512.15 368.00 L 566.10 368.00 L 565.80 362.25 ZM 492.42 335.35 C492.77,334.44 493.01,324.43 492.96,313.11 L 492.86 292.52 L 495.41 290.32 C498.30,287.84 505.29,286.47 509.90,287.48 C511.59,287.85 513.88,289.30 514.99,290.71 C516.86,293.10 517.00,294.74 517.00,315.13 L 517.00 337.00 L 520.52 337.00 C523.35,337.00 524.23,336.51 524.99,334.53 C526.48,330.62 525.65,285.49 524.06,283.57 C522.97,282.25 519.96,282.00 505.45,282.00 L 488.15 282.00 L 486.07 284.63 C484.11,287.14 484.00,288.50 484.00,311.47 C484.00,324.78 484.30,335.97 484.67,336.33 C486.06,337.73 491.79,337.00 492.42,335.35 ZM 544.00 312.50 L 544.00 288.00 L 541.00 288.00 L 538.00 288.00 L 537.99 298.25 C537.99,303.89 537.94,314.35 537.89,321.50 C537.84,328.65 537.84,335.06 537.90,335.75 C537.96,336.45 539.32,337.00 541.00,337.00 L 544.00 337.00 L 544.00 312.50 ZM 703.00 544.09 L 700.50 543.41 L 699.91 463.46 C699.25,375.65 699.22,375.10 692.64,353.50 C685.18,329.02 671.04,305.97 651.53,286.49 C641.03,276.02 625.25,263.51 617.04,259.15 C607.58,254.13 596.41,248.68 594.16,248.00 C592.70,247.56 587.17,245.62 581.87,243.70 C576.57,241.79 570.39,239.90 568.12,239.52 C564.52,238.91 563.99,238.49 563.95,236.16 C563.48,209.90 563.46,188.05 563.92,186.81 C564.44,185.41 565.68,185.49 575.50,187.57 C611.52,195.19 643.41,210.79 673.50,235.51 C711.09,266.40 739.00,312.06 748.53,358.27 C753.64,383.06 754.00,390.50 754.00,470.10 L 754.00 544.00 L 740.75 544.08 C733.46,544.13 722.55,544.30 716.50,544.47 C710.45,544.63 704.38,544.46 703.00,544.09 ZM 273.27 462.75 C273.71,377.39 273.85,374.60 278.53,354.50 C281.09,343.49 286.09,326.60 287.09,325.55 C287.59,325.03 288.00,323.77 288.00,322.75 C288.00,320.71 300.37,295.42 302.60,292.92 C303.37,292.05 304.00,291.07 304.00,290.73 C304.00,290.39 306.55,286.38 309.67,281.81 C326.99,256.41 347.46,236.55 375.00,218.45 C385.09,211.81 404.15,201.77 412.50,198.69 C414.70,197.87 418.98,196.25 422.00,195.08 C433.12,190.79 454.90,185.50 456.18,186.78 C456.65,187.25 456.91,199.07 456.77,213.04 L 456.50 238.45 L 450.50 240.03 C436.93,243.60 421.29,250.46 406.50,259.31 C392.02,267.98 386.73,271.96 376.57,281.85 C367.89,290.29 364.91,293.62 358.09,302.50 C356.41,304.70 354.66,306.95 354.22,307.50 C349.51,313.36 337.51,338.43 333.65,350.50 C327.34,370.19 326.80,378.93 326.95,459.45 C327.02,498.47 326.78,533.46 326.41,537.20 L 325.74 544.00 L 299.30 544.00 L 272.86 544.00 L 273.27 462.75 ZM 302.47 523.22 C302.83,520.59 303.03,492.81 302.91,461.47 C302.64,392.41 303.53,379.60 310.56,350.83 C317.68,321.70 327.20,301.33 346.37,274.16 C348.45,271.22 349.97,268.64 349.75,268.42 C349.04,267.71 340.85,276.38 335.02,284.00 C314.62,310.70 302.13,339.45 296.56,372.50 C293.59,390.09 293.02,405.25 293.01,466.25 L 293.00 528.00 L 297.41 528.00 L 301.81 528.00 L 302.47 523.22 ZM 483.00 235.25 C483.00,215.25 482.79,212.00 481.50,212.00 C480.35,212.00 480.00,210.73 480.00,206.61 C480.00,202.74 480.42,201.05 481.50,200.64 C482.45,200.28 483.00,198.74 483.00,196.50 C483.00,188.72 488.33,181.68 495.04,180.61 C498.12,180.12 499.29,179.37 500.03,177.42 C501.72,172.97 501.26,171.00 498.53,171.00 C495.90,171.00 493.00,166.89 493.00,163.18 C493.00,160.23 496.74,156.16 499.77,155.81 C502.04,155.55 502.55,154.95 502.81,152.25 C502.99,150.42 502.66,149.00 502.06,149.00 C500.46,149.00 500.79,144.89 502.55,142.95 C503.90,141.45 503.93,140.57 502.76,135.95 C502.02,133.04 500.76,130.34 499.96,129.95 C486.84,123.48 485.48,123.00 480.27,123.00 C476.33,123.00 474.11,123.56 472.27,125.00 C470.87,126.10 468.22,127.00 466.37,127.00 C459.11,127.00 456.18,119.14 461.61,114.25 C464.51,111.64 468.29,111.38 472.36,113.51 C475.58,115.18 482.62,115.47 486.28,114.08 C487.61,113.58 490.90,111.12 493.60,108.61 C496.29,106.11 499.29,104.04 500.25,104.03 C502.30,104.00 502.38,103.39 500.88,99.08 C497.82,90.31 508.76,82.08 516.75,87.14 C521.38,90.07 522.66,94.10 520.61,99.29 C518.94,103.49 518.94,103.51 521.52,105.75 C522.95,106.99 524.44,108.00 524.85,108.00 C525.26,108.00 527.51,106.21 529.86,104.02 C536.74,97.60 545.96,95.61 555.58,98.47 C564.35,101.07 570.82,107.25 571.71,113.87 C573.19,124.87 559.21,134.08 543.13,132.70 C536.53,132.14 529.70,129.95 528.51,128.02 C527.43,126.27 524.27,126.90 521.21,129.48 C517.44,132.65 515.80,141.40 518.60,143.45 C519.85,144.36 520.11,145.45 519.61,147.59 C518.10,154.00 518.35,155.48 521.00,155.84 C529.08,156.94 529.79,168.13 521.95,170.87 C519.50,171.72 518.97,172.37 519.42,173.97 C519.74,175.09 520.24,176.86 520.54,177.92 C520.92,179.25 522.37,180.06 525.29,180.55 C528.24,181.05 530.61,182.38 533.25,185.01 C536.68,188.45 537.00,189.23 537.00,194.31 C537.00,198.99 537.32,199.97 539.00,200.50 C540.63,201.02 541.00,202.01 541.00,205.83 C541.00,209.44 540.54,210.81 539.00,211.77 C537.10,212.96 537.00,214.10 537.00,235.77 L 537.00 258.52 L 510.00 258.51 L 483.00 258.50 L 483.00 235.25 ZM 503.79 234.65 C504.00,219.87 503.75,213.40 502.92,212.40 C501.48,210.66 497.58,210.57 496.27,212.25 C495.12,213.73 494.66,238.39 495.59,248.80 L 496.24 256.11 L 499.87 255.80 L 503.50 255.50 L 503.79 234.65 ZM 524.00 234.62 C524.00,211.62 523.75,210.47 518.81,211.17 L 516.50 211.50 L 516.23 233.75 L 515.96 256.00 L 519.98 256.00 L 524.00 256.00 L 524.00 234.62 ZM 484.00 844.94 C484.00,843.23 486.92,827.38 490.50,809.70 C494.08,792.02 497.00,776.81 497.00,775.90 C497.00,774.99 494.12,771.31 490.61,767.73 C482.42,759.37 479.53,752.48 480.36,743.30 C481.06,735.45 484.46,728.68 490.44,723.16 C497.10,717.02 502.89,714.79 511.91,714.86 C521.21,714.94 528.10,718.04 534.06,724.81 C540.58,732.21 541.40,734.38 541.45,744.50 C541.51,755.36 539.27,760.69 531.79,767.50 C528.52,770.47 527.00,772.65 527.00,774.34 C527.00,775.71 529.90,791.16 533.45,808.66 C536.99,826.17 540.03,842.08 540.20,844.00 L 540.50 847.50 L 512.25 847.77 L 484.00 848.03 L 484.00 844.94 Z" fill="rgb(252,201,140)"/>
</g>
</svg>